<?xml version="1.0" standalone="no"?><!DOCTYPE svg PUBLIC "-//W3C//DTD SVG 1.1//EN" "http://www.w3.org/Graphics/SVG/1.1/DTD/svg11.dtd"><svg t="1555559037468" class="icon" style="" viewBox="0 0 1024 1024" version="1.1" xmlns="http://www.w3.org/2000/svg" p-id="2408" xmlns:xlink="http://www.w3.org/1999/xlink" width="48" height="48"><defs><style type="text/css"></style></defs><path d="M0 0h1024v1024H0z" fill="#FFFFFF" fill-opacity="0" p-id="2409"></path><path d="M640 64l256 256v608c0 19.2-12.8 32-32 32H160c-19.2 0-32-12.8-32-32V96c0-19.2 12.8-32 32-32h480z" fill="#FFC93A" p-id="2410"></path><path d="M640 64l256 256h-224c-19.2 0-32-12.8-32-32V64z" fill-opacity=".2" p-id="2411"></path><path d="M352 515.2c16 12.8 25.6 28.8 25.6 54.4h-35.2c-3.2-16-9.6-25.6-19.2-32-3.2-6.4-16-9.6-35.2-9.6-16 0-25.6 3.2-35.2 6.4-9.6 6.4-16 12.8-16 25.6 0 9.6 6.4 19.2 16 25.6 6.4 3.2 19.2 6.4 38.4 12.8 32 9.6 51.2 16 60.8 22.4 19.2 12.8 28.8 28.8 28.8 48s-6.4 35.2-22.4 48-38.4 16-67.2 16-48-6.4-64-16c-19.2-12.8-28.8-35.2-32-64h35.2c3.2 19.2 9.6 32 19.2 38.4 12.8 9.6 25.6 12.8 44.8 12.8 16 0 32-3.2 41.6-9.6s16-12.8 16-22.4c0-12.8-6.4-22.4-22.4-28.8-6.4-3.2-19.2-6.4-44.8-16-28.8-9.6-48-16-54.4-19.2-16-9.6-25.6-25.6-25.6-44.8s9.6-35.2 25.6-48c16-9.6 35.2-16 60.8-16 25.6 0 48 6.4 60.8 16zM435.2 502.4l64 188.8 64-188.8h38.4l-83.2 227.2H480l-83.2-227.2h38.4zM793.6 518.4c16 12.8 25.6 32 32 57.6h-35.2c-3.2-16-9.6-25.6-22.4-35.2-9.6-6.4-25.6-12.8-44.8-12.8-22.4 0-38.4 6.4-51.2 22.4s-19.2 38.4-19.2 67.2 6.4 48 19.2 64 35.2 25.6 64 25.6c9.6 0 22.4 0 32-3.2s19.2-6.4 25.6-9.6V640h-64v-28.8h99.2v96c-12.8 9.6-25.6 16-41.6 22.4-19.2 3.2-38.4 6.4-57.6 6.4-35.2 0-64-12.8-83.2-35.2s-28.8-48-28.8-83.2 9.6-60.8 28.8-83.2 48-35.2 80-35.2c28.8 0 51.2 6.4 67.2 19.2z" fill="#FFFFFF" p-id="2412"></path></svg>